<svg id="mermaid-1579819380180" width="100%" xmlns="http://www.w3.org/2000/svg" height="100%" style="max-width:2050px;" viewBox="-50 -10 2050 1534"><style>#mermaid-1579819380180 .label{font-family:trebuchet ms,verdana,arial;color:#333}#mermaid-1579819380180 .node circle,#mermaid-1579819380180 .node ellipse,#mermaid-1579819380180 .node polygon,#mermaid-1579819380180 .node rect{fill:#ececff;stroke:#9370db;stroke-width:1px}#mermaid-1579819380180 .node.clickable{cursor:pointer}#mermaid-1579819380180 .arrowheadPath{fill:#333}#mermaid-1579819380180 .edgePath .path{stroke:#333;stroke-width:1.5px}#mermaid-1579819380180 .edgeLabel{background-color:#e8e8e8}#mermaid-1579819380180 .cluster rect{fill:#ffffde!important;stroke:#aa3!important;stroke-width:1px!important}#mermaid-1579819380180 .cluster text{fill:#333}#mermaid-1579819380180 div.mermaidTooltip{position:absolute;text-align:center;max-width:200px;padding:2px;font-family:trebuchet ms,verdana,arial;font-size:12px;background:#ffffde;border:1px solid #aa3;border-radius:2px;pointer-events:none;z-index:100}#mermaid-1579819380180 .actor{stroke:#ccf;fill:#ececff}#mermaid-1579819380180 text.actor{fill:#000;stroke:none}#mermaid-1579819380180 .actor-line{stroke:grey}#mermaid-1579819380180 .messageLine0{marker-end:"url(#arrowhead)"}#mermaid-1579819380180 .messageLine0,#mermaid-1579819380180 .messageLine1{stroke-width:1.5;stroke-dasharray:"2 2";stroke:#333}#mermaid-1579819380180 #arrowhead{fill:#333}#mermaid-1579819380180 #crosshead path{fill:#333!important;stroke:#333!important}#mermaid-1579819380180 .messageText{fill:#333;stroke:none}#mermaid-1579819380180 .labelBox{stroke:#ccf;fill:#ececff}#mermaid-1579819380180 .labelText,#mermaid-1579819380180 .loopText{fill:#000;stroke:none}#mermaid-1579819380180 .loopLine{stroke-width:2;stroke-dasharray:"2 2";marker-end:"url(#arrowhead)";stroke:#ccf}#mermaid-1579819380180 .note{stroke:#aa3;fill:#fff5ad}#mermaid-1579819380180 .noteText{fill:#000;stroke:none;font-family:trebuchet ms,verdana,arial;font-size:14px}#mermaid-1579819380180 .section{stroke:none;opacity:.2}#mermaid-1579819380180 .section0{fill:rgba(102,102,255,.49)}#mermaid-1579819380180 .section2{fill:#fff400}#mermaid-1579819380180 .section1,#mermaid-1579819380180 .section3{fill:#fff;opacity:.2}#mermaid-1579819380180 .sectionTitle0,#mermaid-1579819380180 .sectionTitle1,#mermaid-1579819380180 .sectionTitle2,#mermaid-1579819380180 .sectionTitle3{fill:#333}#mermaid-1579819380180 .sectionTitle{text-anchor:start;font-size:11px;text-height:14px}#mermaid-1579819380180 .grid .tick{stroke:#d3d3d3;opacity:.3;shape-rendering:crispEdges}#mermaid-1579819380180 .grid path{stroke-width:0}#mermaid-1579819380180 .today{fill:none;stroke:red;stroke-width:2px}#mermaid-1579819380180 .task{stroke-width:2}#mermaid-1579819380180 .taskText{text-anchor:middle;font-size:11px}#mermaid-1579819380180 .taskTextOutsideRight{fill:#000;text-anchor:start;font-size:11px}#mermaid-1579819380180 .taskTextOutsideLeft{fill:#000;text-anchor:end;font-size:11px}#mermaid-1579819380180 .taskText0,#mermaid-1579819380180 .taskText1,#mermaid-1579819380180 .taskText2,#mermaid-1579819380180 .taskText3{fill:#fff}#mermaid-1579819380180 .task0,#mermaid-1579819380180 .task1,#mermaid-1579819380180 .task2,#mermaid-1579819380180 .task3{fill:#8a90dd;stroke:#534fbc}#mermaid-1579819380180 .taskTextOutside0,#mermaid-1579819380180 .taskTextOutside1,#mermaid-1579819380180 .taskTextOutside2,#mermaid-1579819380180 .taskTextOutside3{fill:#000}#mermaid-1579819380180 .active0,#mermaid-1579819380180 .active1,#mermaid-1579819380180 .active2,#mermaid-1579819380180 .active3{fill:#bfc7ff;stroke:#534fbc}#mermaid-1579819380180 .activeText0,#mermaid-1579819380180 .activeText1,#mermaid-1579819380180 .activeText2,#mermaid-1579819380180 .activeText3{fill:#000!important}#mermaid-1579819380180 .done0,#mermaid-1579819380180 .done1,#mermaid-1579819380180 .done2,#mermaid-1579819380180 .done3{stroke:grey;fill:#d3d3d3;stroke-width:2}#mermaid-1579819380180 .doneText0,#mermaid-1579819380180 .doneText1,#mermaid-1579819380180 .doneText2,#mermaid-1579819380180 .doneText3{fill:#000!important}#mermaid-1579819380180 .crit0,#mermaid-1579819380180 .crit1,#mermaid-1579819380180 .crit2,#mermaid-1579819380180 .crit3{stroke:#f88;fill:red;stroke-width:2}#mermaid-1579819380180 .activeCrit0,#mermaid-1579819380180 .activeCrit1,#mermaid-1579819380180 .activeCrit2,#mermaid-1579819380180 .activeCrit3{stroke:#f88;fill:#bfc7ff;stroke-width:2}#mermaid-1579819380180 .doneCrit0,#mermaid-1579819380180 .doneCrit1,#mermaid-1579819380180 .doneCrit2,#mermaid-1579819380180 .doneCrit3{stroke:#f88;fill:#d3d3d3;stroke-width:2;cursor:pointer;shape-rendering:crispEdges}#mermaid-1579819380180 .activeCritText0,#mermaid-1579819380180 .activeCritText1,#mermaid-1579819380180 .activeCritText2,#mermaid-1579819380180 .activeCritText3,#mermaid-1579819380180 .doneCritText0,#mermaid-1579819380180 .doneCritText1,#mermaid-1579819380180 .doneCritText2,#mermaid-1579819380180 .doneCritText3{fill:#000!important}#mermaid-1579819380180 .titleText{text-anchor:middle;font-size:18px;fill:#000}#mermaid-1579819380180 g.classGroup text{fill:#9370db;stroke:none;font-family:trebuchet ms,verdana,arial;font-size:10px}#mermaid-1579819380180 g.classGroup rect{fill:#ececff;stroke:#9370db}#mermaid-1579819380180 g.classGroup line{stroke:#9370db;stroke-width:1}#mermaid-1579819380180 .classLabel .box{stroke:none;stroke-width:0;fill:#ececff;opacity:.5}#mermaid-1579819380180 .classLabel .label{fill:#9370db;font-size:10px}#mermaid-1579819380180 .relation{stroke:#9370db;stroke-width:1;fill:none}#mermaid-1579819380180 #compositionEnd,#mermaid-1579819380180 #compositionStart{fill:#9370db;stroke:#9370db;stroke-width:1}#mermaid-1579819380180 #aggregationEnd,#mermaid-1579819380180 #aggregationStart{fill:#ececff;stroke:#9370db;stroke-width:1}#mermaid-1579819380180 #dependencyEnd,#mermaid-1579819380180 #dependencyStart,#mermaid-1579819380180 #extensionEnd,#mermaid-1579819380180 #extensionStart{fill:#9370db;stroke:#9370db;stroke-width:1}#mermaid-1579819380180 .branch-label,#mermaid-1579819380180 .commit-id,#mermaid-1579819380180 .commit-msg{fill:#d3d3d3;color:#d3d3d3}</style><style>#mermaid-1579819380180 {
    color: rgb(0, 0, 0);
    font: normal normal 400 normal 16px / normal "Times New Roman";
  }</style><g></g><g><line id="actor0" x1="75" y1="5" x2="75" y2="1523" class="actor-line" stroke-width="0.5px" stroke="#999"></line><rect x="0" y="0" fill="#eaeaea" stroke="#666" width="150" height="65" rx="3" ry="3" class="actor"></rect><text x="75" y="32.5" dominant-baseline="central" alignment-baseline="central" class="actor" style="text-anchor: middle;"><tspan x="75" dy="0">HttpServer</tspan></text></g><g><line id="actor1" x1="275" y1="5" x2="275" y2="1523" class="actor-line" stroke-width="0.5px" stroke="#999"></line><rect x="200" y="0" fill="#eaeaea" stroke="#666" width="150" height="65" rx="3" ry="3" class="actor"></rect><text x="275" y="32.5" dominant-baseline="central" alignment-baseline="central" class="actor" style="text-anchor: middle;"><tspan x="275" dy="0">ServerBuilder</tspan></text></g><g><line id="actor2" x1="475" y1="5" x2="475" y2="1523" class="actor-line" stroke-width="0.5px" stroke="#999"></line><rect x="400" y="0" fill="#eaeaea" stroke="#666" width="150" height="65" rx="3" ry="3" class="actor"></rect><text x="475" y="32.5" dominant-baseline="central" alignment-baseline="central" class="actor" style="text-anchor: middle;"><tspan x="475" dy="0">mio</tspan></text></g><g><line id="actor3" x1="675" y1="5" x2="675" y2="1523" class="actor-line" stroke-width="0.5px" stroke="#999"></line><rect x="600" y="0" fill="#eaeaea" stroke="#666" width="150" height="65" rx="3" ry="3" class="actor"></rect><text x="675" y="32.5" dominant-baseline="central" alignment-baseline="central" class="actor" style="text-anchor: middle;"><tspan x="675" dy="0">Accept</tspan></text></g><g><line id="actor4" x1="875" y1="5" x2="875" y2="1523" class="actor-line" stroke-width="0.5px" stroke="#999"></line><rect x="800" y="0" fill="#eaeaea" stroke="#666" width="150" height="65" rx="3" ry="3" class="actor"></rect><text x="875" y="32.5" dominant-baseline="central" alignment-baseline="central" class="actor" style="text-anchor: middle;"><tspan x="875" dy="0">WorkerClient</tspan></text></g><g><line id="actor5" x1="1075" y1="5" x2="1075" y2="1523" class="actor-line" stroke-width="0.5px" stroke="#999"></line><rect x="1000" y="0" fill="#eaeaea" stroke="#666" width="150" height="65" rx="3" ry="3" class="actor"></rect><text x="1075" y="32.5" dominant-baseline="central" alignment-baseline="central" class="actor" style="text-anchor: middle;"><tspan x="1075" dy="0">Worker</tspan></text></g><g><line id="actor6" x1="1275" y1="5" x2="1275" y2="1523" class="actor-line" stroke-width="0.5px" stroke="#999"></line><rect x="1200" y="0" fill="#eaeaea" stroke="#666" width="150" height="65" rx="3" ry="3" class="actor"></rect><text x="1275" y="32.5" dominant-baseline="central" alignment-baseline="central" class="actor" style="text-anchor: middle;"><tspan x="1275" dy="0">StreamService</tspan></text></g><g><line id="actor7" x1="1475" y1="5" x2="1475" y2="1523" class="actor-line" stroke-width="0.5px" stroke="#999"></line><rect x="1400" y="0" fill="#eaeaea" stroke="#666" width="150" height="65" rx="3" ry="3" class="actor"></rect><text x="1475" y="32.5" dominant-baseline="central" alignment-baseline="central" class="actor" style="text-anchor: middle;"><tspan x="1475" dy="0">HttpServiceHandler</tspan></text></g><g><line id="actor8" x1="1675" y1="5" x2="1675" y2="1523" class="actor-line" stroke-width="0.5px" stroke="#999"></line><rect x="1600" y="0" fill="#eaeaea" stroke="#666" width="150" height="65" rx="3" ry="3" class="actor"></rect><text x="1675" y="32.5" dominant-baseline="central" alignment-baseline="central" class="actor" style="text-anchor: middle;"><tspan x="1675" dy="0">Dispatcher</tspan></text></g><g><line id="actor9" x1="1875" y1="5" x2="1875" y2="1523" class="actor-line" stroke-width="0.5px" stroke="#999"></line><rect x="1800" y="0" fill="#eaeaea" stroke="#666" width="150" height="65" rx="3" ry="3" class="actor"></rect><text x="1875" y="32.5" dominant-baseline="central" alignment-baseline="central" class="actor" style="text-anchor: middle;"><tspan x="1875" dy="0">Tokio</tspan></text></g><defs><marker id="arrowhead" refX="5" refY="2" markerWidth="6" markerHeight="4" orient="auto"><path d="M 0,0 V 4 L6,2 Z"></path></marker></defs><defs><marker id="crosshead" markerWidth="15" markerHeight="8" orient="auto" refX="16" refY="4"><path fill="black" stroke="#000000" stroke-width="1px" d="M 9,2 V 6 L16,4 Z" style="stroke-dasharray: 0, 0;"></path><path fill="none" stroke="#000000" stroke-width="1px" d="M 0,1 L 6,7 M 6,1 L 0,7" style="stroke-dasharray: 0, 0;"></path></marker></defs><g><rect x="1200" y="75" fill="#EDF2AE" stroke="#666" width="150" height="36" rx="0" ry="0" class="note"></rect><text x="1196" y="99" fill="black" class="noteText"><tspan x="1216" fill="black">(token, web::App)</tspan></text></g><g><text x="775" y="139" class="messageText" style="text-anchor: middle;">eventually build...</text><line x1="75" y1="146" x2="1475" y2="146" class="messageLine1" stroke-width="2" stroke="black" marker-end="url(#arrowhead)" style="stroke-dasharray: 3, 3; fill: none;"></line></g><g><text x="475" y="174" class="messageText" style="text-anchor: middle;">start(socks, workers)</text><line x1="275" y1="181" x2="675" y2="181" class="messageLine1" stroke-width="2" stroke="black" marker-end="url(#arrowhead)" style="stroke-dasharray: 3, 3; fill: none;"></line></g><g><text x="575" y="234" class="messageText" style="text-anchor: middle;">mio::Poll::poll()</text><line x1="675" y1="241" x2="475" y2="241" class="messageLine1" stroke-width="2" stroke="black" marker-end="url(#arrowhead)" style="stroke-dasharray: 3, 3; fill: none;"></line></g><g><text x="675" y="294" class="messageText" style="text-anchor: middle;">process_*</text><path d="M 675,301 C 735,291 735,331 675,321" class="messageLine1" stroke-width="2" stroke="black" marker-end="url(#arrowhead)" style="stroke-dasharray: 3, 3; fill: none;"></path></g><g><text x="675" y="379" class="messageText" style="text-anchor: middle;">backpressure</text><path d="M 675,386 C 735,376 735,416 675,406" class="messageLine1" stroke-width="2" stroke="black" marker-end="url(#arrowhead)" style="stroke-dasharray: 3, 3; fill: none;"></path></g><g><text x="675" y="464" class="messageText" style="text-anchor: middle;">accept_one(Conn)</text><path d="M 675,471 C 735,461 735,501 675,491" class="messageLine1" stroke-width="2" stroke="black" marker-end="url(#arrowhead)" style="stroke-dasharray: 3, 3; fill: none;"></path></g><g><text x="775" y="554" class="messageText" style="text-anchor: middle;">send(Conn)</text><line x1="675" y1="561" x2="875" y2="561" class="messageLine1" stroke-width="2" stroke="black" marker-end="url(#arrowhead)" style="stroke-dasharray: 3, 3; fill: none;"></line></g><g><text x="775" y="589" class="messageText" style="text-anchor: middle;">Err(_)</text><line x1="875" y1="596" x2="675" y2="596" class="messageLine1" stroke-width="2" stroke="black" marker-end="url(#arrowhead)" style="stroke-dasharray: 3, 3; fill: none;"></line></g><g><text x="475" y="624" class="messageText" style="text-anchor: middle;">worker_faulted(idx)</text><line x1="675" y1="631" x2="275" y2="631" class="messageLine1" stroke-width="2" stroke="black" marker-end="url(#arrowhead)" style="stroke-dasharray: 3, 3; fill: none;"></line></g><g><text x="675" y="659" class="messageText" style="text-anchor: middle;">remove worker, get next worker</text><path d="M 675,666 C 735,656 735,696 675,686" class="messageLine1" stroke-width="2" stroke="black" marker-end="url(#arrowhead)" style="stroke-dasharray: 3, 3; fill: none;"></path></g><g><line x1="265" y1="511" x2="885" y2="511" class="loopLine"></line><line x1="885" y1="511" x2="885" y2="706" class="loopLine"></line><line x1="265" y1="706" x2="885" y2="706" class="loopLine"></line><line x1="265" y1="511" x2="265" y2="706" class="loopLine"></line><polygon points="265,511 315,511 315,524 306.6,531 265,531" class="labelBox"></polygon><text x="272.5" y="526" fill="black" class="labelText"><tspan x="272.5" fill="black">loop</tspan></text><text x="575" y="526" fill="black" class="loopText" style="text-anchor: middle;"><tspan x="575" fill="black">[ until WorkerClient::send(Conn).is_ok() ]</tspan></text></g><g><line x1="255" y1="251" x2="895" y2="251" class="loopLine"></line><line x1="895" y1="251" x2="895" y2="716" class="loopLine"></line><line x1="255" y1="716" x2="895" y2="716" class="loopLine"></line><line x1="255" y1="251" x2="255" y2="716" class="loopLine"></line><line x1="255" y1="341" x2="895" y2="341" class="loopLine" style="stroke-dasharray: 3, 3;"></line><line x1="255" y1="426" x2="895" y2="426" class="loopLine" style="stroke-dasharray: 3, 3;"></line><polygon points="255,251 305,251 305,264 296.6,271 255,271" class="labelBox"></polygon><text x="262.5" y="266" fill="black" class="labelText"><tspan x="262.5" fill="black">alt</tspan></text><text x="575" y="266" fill="black" class="loopText" style="text-anchor: middle;"><tspan x="575" fill="black">[ poll() -&gt; TIMER | CMD ]</tspan></text><text x="575" y="356" fill="black" class="loopText" style="text-anchor: middle;"><tspan x="575" fill="black">[ poll() -&gt; NOTIFY ]</tspan></text><text x="575" y="441" fill="black" class="loopText" style="text-anchor: middle;"><tspan x="575" fill="black">[ poll() -&gt; OTHER(token) ]</tspan></text></g><g><line x1="245" y1="191" x2="905" y2="191" class="loopLine"></line><line x1="905" y1="191" x2="905" y2="726" class="loopLine"></line><line x1="245" y1="726" x2="905" y2="726" class="loopLine"></line><line x1="245" y1="191" x2="245" y2="726" class="loopLine"></line><polygon points="245,191 295,191 295,204 286.6,211 245,211" class="labelBox"></polygon><text x="252.5" y="206" fill="black" class="labelText"><tspan x="252.5" fill="black">loop</tspan></text><text x="575" y="206" fill="black" class="loopText" style="text-anchor: middle;"><tspan x="575" fill="black">[ Continuous: poll ]</tspan></text></g><g><text x="1475" y="754" class="messageText" style="text-anchor: middle;">poll()</text><line x1="1875" y1="761" x2="1075" y2="761" class="messageLine1" stroke-width="2" stroke="black" marker-end="url(#arrowhead)" style="stroke-dasharray: 3, 3; fill: none;"></line></g><g><text x="975" y="839" class="messageText" style="text-anchor: middle;">rx.poll_next()</text><line x1="1075" y1="846" x2="875" y2="846" class="messageLine1" stroke-width="2" stroke="black" marker-end="url(#arrowhead)" style="stroke-dasharray: 3, 3; fill: none;"></line></g><g><text x="975" y="874" class="messageText" style="text-anchor: middle;">WorkerCommand(Conn)</text><line x1="875" y1="881" x2="1075" y2="881" class="messageLine1" stroke-width="2" stroke="black" marker-end="url(#arrowhead)" style="stroke-dasharray: 3, 3; fill: none;"></line></g><g><text x="1075" y="909" class="messageText" style="text-anchor: middle;">check_readiness</text><path d="M 1075,916 C 1135,906 1135,946 1075,936" class="messageLine1" stroke-width="2" stroke="black" marker-end="url(#arrowhead)" style="stroke-dasharray: 3, 3; fill: none;"></path></g><g><rect x="1050" y="981" fill="#EDF2AE" stroke="#666" width="250" height="36" rx="0" ry="0" class="note"></rect><text x="1046" y="1005" fill="black" class="noteText"><tspan x="1066" fill="black">Worker::services[Conn.token]</tspan></text></g><g><text x="1175" y="1045" class="messageText" style="text-anchor: middle;">call(ServerMessage::Connect(stream))</text><line x1="1075" y1="1052" x2="1275" y2="1052" class="messageLine1" stroke-width="2" stroke="black" marker-end="url(#arrowhead)" style="stroke-dasharray: 3, 3; fill: none;"></line></g><g><text x="1375" y="1080" class="messageText" style="text-anchor: middle;">call(stream)</text><line x1="1275" y1="1087" x2="1475" y2="1087" class="messageLine1" stroke-width="2" stroke="black" marker-end="url(#arrowhead)" style="stroke-dasharray: 3, 3; fill: none;"></line></g><g><rect x="1470" y="1089" fill="#f4f4f4" stroke="#666" width="10" height="149" rx="0" ry="0"></rect></g><g><text x="1677.5" y="1115" class="messageText" style="text-anchor: middle;">poll()</text><line x1="1875" y1="1122" x2="1480" y2="1122" class="messageLine1" stroke-width="2" stroke="black" marker-end="url(#arrowhead)" style="stroke-dasharray: 3, 3; fill: none;"></line></g><g><text x="1577.5" y="1150" class="messageText" style="text-anchor: middle;">new(stream)</text><line x1="1480" y1="1157" x2="1675" y2="1157" class="messageLine1" stroke-width="2" stroke="black" marker-end="url(#arrowhead)" style="stroke-dasharray: 3, 3; fill: none;"></line></g><g><rect x="1400" y="1167" fill="#EDF2AE" stroke="#666" width="150" height="36" rx="0" ry="0" class="note"></rect><text x="1396" y="1191" fill="black" class="noteText"><tspan x="1416" fill="black">handle connection</tspan></text></g><g><text x="1775" y="1231" class="messageText" style="text-anchor: middle;">poll()</text><line x1="1875" y1="1238" x2="1675" y2="1238" class="messageLine1" stroke-width="2" stroke="black" marker-end="url(#arrowhead)" style="stroke-dasharray: 3, 3; fill: none;"></line></g><g><text x="1075" y="1286" class="messageText" style="text-anchor: middle;">WorkerState::Unavailable</text><path d="M 1075,1293 C 1135,1283 1135,1323 1075,1313" class="messageLine1" stroke-width="2" stroke="black" marker-end="url(#arrowhead)" style="stroke-dasharray: 3, 3; fill: none;"></path></g><g><text x="1075" y="1371" class="messageText" style="text-anchor: middle;">WorkerState::Restarting</text><path d="M 1075,1378 C 1135,1368 1135,1408 1075,1398" class="messageLine1" stroke-width="2" stroke="black" marker-end="url(#arrowhead)" style="stroke-dasharray: 3, 3; fill: none;"></path></g><g><line x1="965" y1="956" x2="1885" y2="956" class="loopLine"></line><line x1="1885" y1="956" x2="1885" y2="1418" class="loopLine"></line><line x1="965" y1="1418" x2="1885" y2="1418" class="loopLine"></line><line x1="965" y1="956" x2="965" y2="1418" class="loopLine"></line><line x1="965" y1="1248" x2="1885" y2="1248" class="loopLine" style="stroke-dasharray: 3, 3;"></line><line x1="965" y1="1333" x2="1885" y2="1333" class="loopLine" style="stroke-dasharray: 3, 3;"></line><polygon points="965,956 1015,956 1015,969 1006.6,976 965,976" class="labelBox"></polygon><text x="972.5" y="971" fill="black" class="labelText"><tspan x="972.5" fill="black">alt</tspan></text><text x="1425" y="971" fill="black" class="loopText" style="text-anchor: middle;"><tspan x="1425" fill="black">[ Ok(true) ]</tspan></text><text x="1425" y="1263" fill="black" class="loopText" style="text-anchor: middle;"><tspan x="1425" fill="black">[ Ok(false) ]</tspan></text><text x="1425" y="1348" fill="black" class="loopText" style="text-anchor: middle;"><tspan x="1425" fill="black">[ Err(token,idx) ]</tspan></text></g><g><line x1="865" y1="796" x2="1895" y2="796" class="loopLine"></line><line x1="1895" y1="796" x2="1895" y2="1428" class="loopLine"></line><line x1="865" y1="1428" x2="1895" y2="1428" class="loopLine"></line><line x1="865" y1="796" x2="865" y2="1428" class="loopLine"></line><polygon points="865,796 915,796 915,809 906.6,816 865,816" class="labelBox"></polygon><text x="872.5" y="811" fill="black" class="labelText"><tspan x="872.5" fill="black">loop</tspan></text><text x="1380" y="811" fill="black" class="loopText" style="text-anchor: middle;"><tspan x="1380" fill="black">[  ]</tspan></text></g><g><line x1="855" y1="771" x2="1905" y2="771" class="loopLine"></line><line x1="1905" y1="771" x2="1905" y2="1438" class="loopLine"></line><line x1="855" y1="1438" x2="1905" y2="1438" class="loopLine"></line><line x1="855" y1="771" x2="855" y2="1438" class="loopLine"></line><polygon points="855,771 905,771 905,784 896.6,791 855,791" class="labelBox"></polygon><text x="862.5" y="786" fill="black" class="labelText"><tspan x="862.5" fill="black">alt</tspan></text><text x="1380" y="786" fill="black" class="loopText" style="text-anchor: middle;"><tspan x="1380" fill="black">[ WorkerState::Available ]</tspan></text></g><g><rect x="0" y="1458" fill="#eaeaea" stroke="#666" width="150" height="65" rx="3" ry="3" class="actor"></rect><text x="75" y="1490.5" dominant-baseline="central" alignment-baseline="central" class="actor" style="text-anchor: middle;"><tspan x="75" dy="0">HttpServer</tspan></text></g><g><rect x="200" y="1458" fill="#eaeaea" stroke="#666" width="150" height="65" rx="3" ry="3" class="actor"></rect><text x="275" y="1490.5" dominant-baseline="central" alignment-baseline="central" class="actor" style="text-anchor: middle;"><tspan x="275" dy="0">ServerBuilder</tspan></text></g><g><rect x="400" y="1458" fill="#eaeaea" stroke="#666" width="150" height="65" rx="3" ry="3" class="actor"></rect><text x="475" y="1490.5" dominant-baseline="central" alignment-baseline="central" class="actor" style="text-anchor: middle;"><tspan x="475" dy="0">mio</tspan></text></g><g><rect x="600" y="1458" fill="#eaeaea" stroke="#666" width="150" height="65" rx="3" ry="3" class="actor"></rect><text x="675" y="1490.5" dominant-baseline="central" alignment-baseline="central" class="actor" style="text-anchor: middle;"><tspan x="675" dy="0">Accept</tspan></text></g><g><rect x="800" y="1458" fill="#eaeaea" stroke="#666" width="150" height="65" rx="3" ry="3" class="actor"></rect><text x="875" y="1490.5" dominant-baseline="central" alignment-baseline="central" class="actor" style="text-anchor: middle;"><tspan x="875" dy="0">WorkerClient</tspan></text></g><g><rect x="1000" y="1458" fill="#eaeaea" stroke="#666" width="150" height="65" rx="3" ry="3" class="actor"></rect><text x="1075" y="1490.5" dominant-baseline="central" alignment-baseline="central" class="actor" style="text-anchor: middle;"><tspan x="1075" dy="0">Worker</tspan></text></g><g><rect x="1200" y="1458" fill="#eaeaea" stroke="#666" width="150" height="65" rx="3" ry="3" class="actor"></rect><text x="1275" y="1490.5" dominant-baseline="central" alignment-baseline="central" class="actor" style="text-anchor: middle;"><tspan x="1275" dy="0">StreamService</tspan></text></g><g><rect x="1400" y="1458" fill="#eaeaea" stroke="#666" width="150" height="65" rx="3" ry="3" class="actor"></rect><text x="1475" y="1490.5" dominant-baseline="central" alignment-baseline="central" class="actor" style="text-anchor: middle;"><tspan x="1475" dy="0">HttpServiceHandler</tspan></text></g><g><rect x="1600" y="1458" fill="#eaeaea" stroke="#666" width="150" height="65" rx="3" ry="3" class="actor"></rect><text x="1675" y="1490.5" dominant-baseline="central" alignment-baseline="central" class="actor" style="text-anchor: middle;"><tspan x="1675" dy="0">Dispatcher</tspan></text></g><g><rect x="1800" y="1458" fill="#eaeaea" stroke="#666" width="150" height="65" rx="3" ry="3" class="actor"></rect><text x="1875" y="1490.5" dominant-baseline="central" alignment-baseline="central" class="actor" style="text-anchor: middle;"><tspan x="1875" dy="0">Tokio</tspan></text></g></svg>